<svg width="40" height="40" viewBox="0 0 40 40" fill="none" xmlns="http://www.w3.org/2000/svg">
<g clip-path="url(#clip0_57_5016)">
<path d="M33.3333 10H26.6667V6.66668C26.6667 4.83334 25.1667 3.33334 23.3333 3.33334H16.6667C14.8333 3.33334 13.3333 4.83334 13.3333 6.66668V10H6.66668C4.83334 10 3.33334 11.5 3.33334 13.3333V33.3333C3.33334 35.1667 4.83334 36.6667 6.66668 36.6667H33.3333C35.1667 36.6667 36.6667 35.1667 36.6667 33.3333V13.3333C36.6667 11.5 35.1667 10 33.3333 10ZM16.6667 6.66668H23.3333V10H16.6667V6.66668ZM25 25H21.6667V28.3333C21.6667 29.25 20.9167 30 20 30C19.0833 30 18.3333 29.25 18.3333 28.3333V25H15C14.0833 25 13.3333 24.25 13.3333 23.3333C13.3333 22.4167 14.0833 21.6667 15 21.6667H18.3333V18.3333C18.3333 17.4167 19.0833 16.6667 20 16.6667C20.9167 16.6667 21.6667 17.4167 21.6667 18.3333V21.6667H25C25.9167 21.6667 26.6667 22.4167 26.6667 23.3333C26.6667 24.25 25.9167 25 25 25Z" fill="#B58A57"/>
</g>
<defs>
<clipPath id="clip0_57_5016">
<rect width="40" height="40" fill="white"/>
</clipPath>
</defs>
</svg>
