<svg width="56" height="56" viewBox="0 0 56 56" fill="none" xmlns="http://www.w3.org/2000/svg">
<g clip-path="url(#clip0_57_94)">
<path fill-rule="evenodd" clip-rule="evenodd" d="M38.8967 30.6367C42.0933 32.8067 44.3333 35.7467 44.3333 39.6667V46.6667H51.3333C52.6167 46.6667 53.6667 45.6167 53.6667 44.3333V39.6667C53.6667 34.58 45.3367 31.57 38.8967 30.6367Z" fill="#D9ECF6"/>
<path d="M21 28C26.1547 28 30.3333 23.8213 30.3333 18.6666C30.3333 13.512 26.1547 9.33331 21 9.33331C15.8453 9.33331 11.6667 13.512 11.6667 18.6666C11.6667 23.8213 15.8453 28 21 28Z" fill="#D9ECF6"/>
<path fill-rule="evenodd" clip-rule="evenodd" d="M35 28C40.1567 28 44.3333 23.8233 44.3333 18.6666C44.3333 13.51 40.1567 9.33331 35 9.33331C33.9033 9.33331 32.8767 9.56665 31.8967 9.89331C33.8333 12.2966 35 15.3533 35 18.6666C35 21.98 33.8333 25.0366 31.8967 27.44C32.8767 27.7666 33.9033 28 35 28Z" fill="#D9ECF6"/>
<path fill-rule="evenodd" clip-rule="evenodd" d="M21 30.3333C14.77 30.3333 2.33334 33.46 2.33334 39.6666V44.3333C2.33334 45.6166 3.38334 46.6666 4.66667 46.6666H37.3333C38.6167 46.6666 39.6667 45.6166 39.6667 44.3333V39.6666C39.6667 33.46 27.23 30.3333 21 30.3333Z" fill="#D9ECF6"/>
</g>
<defs>
<clipPath id="clip0_57_94">
<rect width="56" height="56" fill="white"/>
</clipPath>
</defs>
</svg>
